<svg xmlns="http://www.w3.org/2000/svg" xmlns:xlink="http://www.w3.org/1999/xlink" version="1.1" x="0px" y="0px" viewBox="0 0 100 100" style="enable-background:new 0 0 100 100;" xml:space="preserve"><g><path d="M13.534,6.574C13.534,2.949,16.483,0,20.107,0h64.613c-0.031,0.105-0.318,1.207-0.564,2.823H21.913   c-0.585,0-1.06,0.474-1.06,1.06c0,0.585,0.475,1.059,1.06,1.059h61.991c-0.077,0.89-0.122,1.846-0.104,2.825H21.913   c-0.585,0-1.06,0.475-1.06,1.06s0.475,1.06,1.06,1.06h62.027c0.135,1.118,0.371,2.224,0.753,3.251H20.107   C16.483,13.137,13.534,10.192,13.534,6.574z M86.508,17.377V100H20.065c-3.625,0-6.574-2.949-6.574-6.574v-78.28   c1.823,1.399,4.103,2.231,6.574,2.231H86.508z M70.805,46.826H54.391V27.349h-4.24v19.478H33.737v4.239h16.414v35.392h4.24V51.065   h16.414V46.826z"/></g></svg>